Coordinates
version=1
nRows=7
nColumns=40
inDegrees=yes

Units are S.I. units (second, meters, Newtons, ...)
Angles are in degrees.

endheader
time	pelvis_tilt	pelvis_list	pelvis_rotation	pelvis_tx	pelvis_ty	pelvis_tz	hip_flexion_r	hip_adduction_r	hip_rotation_r	knee_angle_r	knee_angle_r_beta	ankle_angle_r	subtalar_angle_r	mtp_angle_r	hip_flexion_l	hip_adduction_l	hip_rotation_l	knee_angle_l	knee_angle_l_beta	ankle_angle_l	subtalar_angle_l	mtp_angle_l	lumbar_extension	lumbar_bending	lumbar_rotation	arm_flex_r	arm_add_r	arm_rot_r	elbow_flex_r	pro_sup_r	wrist_flex_r	wrist_dev_r	arm_flex_l	arm_add_l	arm_rot_l	elbow_flex_l	pro_sup_l	wrist_flex_l	wrist_dev_l
     34.90000000	     -4.78311663	     -3.90092227	     -1.61452331	      0.94896439	      0.92673408	      0.43290357	     27.32244353	     -1.40735593	    -12.66798255	     12.42430746	     12.42430746	      2.63457251	      5.03641883	      8.73042399	      1.58189051	     -3.15474043	     -9.33225482	     12.65206643	     12.65206643	     17.01642224	     -7.00296318	     -2.80973298	     -8.82927409	      7.13354400	      3.15666706	    -15.48922932	    -10.76653426	    -12.42222736	     21.13577427	     46.66612592	      0.00000000	      0.00000000	     28.16262037	    -15.68496634	     -9.60083489	     68.97382680	     47.25818251	      0.00000000	      0.00000000
     34.91257143	     -4.87771112	     -3.90782798	     -1.80894798	      0.94930022	      0.92534037	      0.43486282	     27.15108362	     -1.07980698	    -13.32413885	     12.50065499	     12.50065499	      2.51693242	      4.86987530	      8.59408956	      1.00810774	     -3.24541418	     -9.46500260	     12.50867681	     12.50867681	     17.43696509	     -7.01359748	     -2.86678360	     -8.60030817	      7.15668173	      3.23856460	    -15.95937434	    -10.77602768	    -12.44340326	     20.95522160	     46.67462381	      0.00000000	      0.00000000	     28.11393075	    -15.67331299	     -9.68110640	     69.29022240	     47.27190129	      0.00000000	      0.00000000
     34.92514286	     -4.91871531	     -3.90274009	     -2.00548217	      0.94979065	      0.92404406	      0.43701386	     26.91430767	     -0.80771325	    -13.89392260	     12.99186600	     12.99186600	      2.40800970	      4.61254347	      7.86439867	      0.37252577	     -3.34534886	     -9.69602332	     12.38042753	     12.38042753	     17.88677624	     -6.84918633	     -2.79013285	     -8.46526100	      7.11286843	      3.46471658	    -16.23812036	    -10.78572730	    -12.46316841	     20.82700511	     46.68600730	      0.00000000	      0.00000000	     27.91207348	    -15.46488306	     -9.80107953	     69.94991081	     47.29579663	      0.00000000	      0.00000000
     34.93771429	     -4.96437569	     -4.10214104	     -2.11406274	      0.95041959	      0.92274575	      0.43927229	     26.62446767	     -0.38862720	    -14.35068108	     13.72490267	     13.72490267	      2.40758207	      4.15320615	      7.37635825	     -0.19830834	     -3.68957736	     -9.71822185	     12.38036370	     12.38036370	     18.34593509	     -6.89353998	     -2.77980556	     -8.28813861	      7.31402516	      3.51196810	    -16.42051540	    -10.78225575	    -12.47206255	     20.73651948	     46.69167109	      0.00000000	      0.00000000	     27.52301674	    -15.34298741	     -9.84029599	     70.08072210	     47.30023642	      0.00000000	      0.00000000
     34.95028571	     -4.94975501	     -4.04816052	     -2.22498487	      0.95122852	      0.92127211	      0.44161491	     26.25783576	     -0.17376235	    -14.17209769	     14.45169839	     14.45169839	      0.73178560	      2.69667226	      1.42889530	     -0.59825316	     -3.87816681	    -10.28481162	     12.95639315	     12.95639315	     19.88876344	     -5.80535840	     -0.96443941	     -8.19708019	      7.18962923	      3.03606606	    -15.90463435	    -10.88046551	    -12.44439469	     20.35463839	     46.76208589	      0.00000000	      0.00000000	     26.34865650	    -15.43323369	    -10.80086354	     71.90277495	     47.42986103	      0.00000000	      0.00000000
     34.96285714	     -4.92087878	     -4.15506216	     -2.27686731	      0.95199575	      0.92006654	      0.44390671	     26.01961400	      0.05814110	    -14.17917163	     15.69698773	     15.69698773	      1.02874185	      1.98672665	      0.81916569	     -1.10223920	     -4.15173941	    -10.27709560	     13.22924095	     13.22924095	     20.31781637	     -5.95756349	     -0.93269366	     -8.08262992	      7.31002493	      3.14074158	    -15.70111398	    -10.88867573	    -12.40870413	     20.30921169	     46.76943619	      0.00000000	      0.00000000	     25.97041445	    -15.17280270	    -10.76073935	     71.74998146	     47.42640814	      0.00000000	      0.00000000
     34.97542857	     -4.84897374	     -4.34474469	     -2.29053635	      0.95297287	      0.91920079	      0.44625160	     25.53261288	      0.38928288	    -14.18163707	     16.57126666	     16.57126666	      1.36506541	      1.56981017	      0.44013481	     -1.63902629	     -4.53041636	    -10.21129888	     13.53886990	     13.53886990	     20.64683665	     -6.13264775	     -0.95351206	     -7.99270102	      7.53579865	      3.24432321	    -15.35572454	    -10.85906093	    -12.38656875	     20.38568448	     46.76941501	      0.00000000	      0.00000000	     25.32201217	    -14.76848269	    -10.64327968	     71.53497700	     47.41120647	      0.00000000	      0.00000000
